<?xml version="1.0" encoding="iso-8859-1"?>
<!-- Uploaded to: SVG Repo, www.svgrepo.com, Generator: SVG Repo Mixer Tools -->
<svg version="1.1" id="Layer_1" xmlns="http://www.w3.org/2000/svg" xmlns:xlink="http://www.w3.org/1999/xlink" 
	 viewBox="0 0 512.002 512.002" xml:space="preserve">
<circle style="fill:#B5F1F4;" cx="256.001" cy="256" r="256"/>
<path style="fill:#4CDBC4;" d="M511.997,256.283l-80.57-80.965L342.87,263.57l-95.694-98.226l-26.228,32.62l-46.292,39.793
	l79.046,74.561L97.474,374.925l136.087,136.087c7.396,0.643,14.877,0.99,22.44,0.99C397.292,512,511.844,397.538,511.997,256.283z"
	/>
<circle style="fill:#F9B54C;" cx="210.835" cy="201.456" r="51.243"/>
<path style="fill:#F4A200;" d="M262.071,201.457c0-28.182-22.754-51.043-50.891-51.234v102.469
	C239.319,252.5,262.071,229.64,262.071,201.457z"/>
<path style="fill:#324A5E;" d="M97.474,374.924c0-62.604,50.75-113.354,113.354-113.354s113.354,50.75,113.354,113.354H97.474z"/>
<path style="fill:#2B3B4E;" d="M211.181,261.579v113.345h113.002C324.183,312.437,273.621,261.768,211.181,261.579z"/>
<path style="fill:#2C9984;" d="M413.861,168.083H304.418c-13.777,0-24.947,11.169-24.947,24.947v77.576
	c0,13.777,11.169,24.947,24.947,24.947h14.646v31.866l31.866-31.866h62.929c13.777,0,24.947-11.169,24.947-24.947v-77.576
	C438.807,179.25,427.638,168.083,413.861,168.083z"/>
<circle style="fill:#FFD15D;" cx="359.142" cy="229.641" r="38.662"/>
<g>
	<path style="fill:#F4A200;" d="M359.14,276.115c-25.626,0-46.473-20.847-46.473-46.473s20.847-46.473,46.473-46.473
		c25.626,0,46.473,20.847,46.473,46.473C405.613,255.267,384.766,276.115,359.14,276.115z M359.14,198.79
		c-17.012,0-30.851,13.84-30.851,30.851c0,17.011,13.84,30.851,30.851,30.851c17.011,0,30.851-13.84,30.851-30.851
		S376.152,198.79,359.14,198.79z"/>
	<rect x="352.109" y="212.075" style="fill:#F4A200;" width="14.058" height="35.147"/>
</g>
</svg>